<svg width="60" height="58" viewBox="0 0 60 58" fill="none" xmlns="http://www.w3.org/2000/svg">
<path d="M17.4947 36C16.9103 37.5578 16.1315 39.1148 15.3527 40.8676C14.7682 41.6461 13.9894 42.6196 13.405 43.5931C11.2629 46.5136 8.92583 49.6284 8.1463 52.3539C7.95123 53.3274 7.95123 55.2744 8.1463 56.2479C8.1463 57.2214 9.12015 58 10.094 58H10.2891C11.458 58 12.2368 57.0264 12.0417 55.8587C12.0417 54.8852 11.8467 53.5224 12.0417 53.3275C12.6262 51.3804 14.7682 48.4599 16.5209 45.9294C17.2997 44.9559 18.0792 43.7881 18.6629 42.8146C18.6629 42.8146 18.6629 42.6196 18.858 42.6196C19.6368 41.0618 20.4163 39.5048 21 37.947C19.8311 37.752 18.6629 37.3628 17.8841 36.5843C17.6898 36.3893 17.6898 36.1943 17.4947 36Z" fill="#1D1D35"/>
<path d="M17 22.2495C16.6411 20.3744 16.2823 19.4369 16.2823 19.2498C15.5646 17.5624 14.3083 15.8744 13.0513 14C11.2563 14.5627 10 16.4378 10 18.3122C10 20.9371 11.974 23 14.4873 23C15.5639 22.9993 16.2816 22.6244 17 22.2495Z" fill="#1D1D35"/>
<path d="M60 19.9079V17.4788C50.0707 9.44474 38.4555 5.14696 28.1516 2.90489C26.6526 2.53132 24.779 2.34423 24.779 2.34423C19.7205 1.40997 14.8497 1.03642 11.1026 0.849284C10.3535 0.849284 9.22904 0.849284 8.29226 0.849284C8.10462 0.66215 7.91769 0.475719 7.73005 0.475719C6.98091 -0.271403 5.85649 -0.0850171 5.10734 0.662812L4.91971 0.849973H4.73204C2.29627 0.849973 0.79802 1.03713 0.79802 1.03713C0.23581 1.03713 -0.138767 1.59782 0.0488729 2.15852C0.0488729 2.71921 0.611075 3.09278 1.17329 2.90564C1.17329 2.90564 2.67227 2.71848 4.9204 2.71848C5.10804 2.90562 5.10805 3.09208 5.29498 3.27921C5.29498 3.27921 15.0366 12.0604 18.0346 18.2266C18.4092 19.1609 20.2828 23.8321 18.4092 32.6133C18.2216 33.5475 18.4092 34.2947 18.9714 35.0425C20.2828 36.3503 22.5309 35.9768 25.7158 35.4161C27.0272 35.2289 29.4629 34.6689 30.5866 34.8553C30.0244 35.6025 28.3385 36.7239 27.4017 37.2846C25.3412 38.7795 23.28 40.0873 22.5309 41.7687C22.3433 42.5158 22.1563 43.6372 22.3433 45.3186C22.5309 46.2528 23.28 47 24.2168 47H24.4044C25.3412 46.8129 26.0904 45.8786 26.0904 44.945C26.0904 44.1979 25.9027 43.2637 25.9027 43.2637C26.2773 42.5165 28.1509 41.2087 29.2753 40.4609C32.0856 38.5924 35.2705 36.3503 33.9592 33.3611C32.8348 30.3719 28.7138 31.119 24.779 31.8661C23.8422 32.0533 22.7185 32.2397 21.9687 32.2397C23.4677 23.2714 21.5941 18.2266 21.0319 16.7323C18.7838 11.8746 13.1631 5.8955 9.97887 2.71917C11.4779 2.71917 12.7892 2.90633 12.7892 2.90633C16.1618 3.09347 19.9082 3.467 24.2175 4.21412C24.2175 4.21412 27.5901 4.58772 31.5241 5.89554C41.2658 8.1369 51.3828 12.4339 60 19.9079Z" fill="#1D1D35"/>
</svg>
