<svg width="48" height="49" viewBox="0 0 48 49" fill="none" xmlns="http://www.w3.org/2000/svg">
<path d="M0.999963 49C1.55225 49 2 48.5523 2 48C2 47.4478 1.55225 47 0.999963 47C0.447678 47 0 47.4478 0 48C0 48.5523 0.447678 49 0.999963 49Z" fill="#1D1D35"/>
<path d="M5 49C5.55227 49 6 48.5523 6 48C6 47.4478 5.55227 47 5 47C4.44773 47 4 47.4478 4 48C4 48.5523 4.44773 49 5 49Z" fill="#1D1D35"/>
<path d="M8.99996 49C9.55225 49 10 48.5523 10 48C10 47.4478 9.55225 47 8.99996 47C8.44768 47 8 47.4478 8 48C8 48.5523 8.44768 49 8.99996 49Z" fill="#1D1D35"/>
<path d="M16 49C16.5523 49 17 48.5523 17 48C17 47.4478 16.5523 47 16 47C15.4477 47 15 47.4478 15 48C15 48.5523 15.4477 49 16 49Z" fill="#1D1D35"/>
<path d="M20 49C20.5522 49 21 48.5523 21 48C21 47.4478 20.5522 47 20 47C19.4477 47 19 47.4478 19 48C19 48.5523 19.4477 49 20 49Z" fill="#1D1D35"/>
<path d="M24 49C24.5522 49 25 48.5523 25 48C25 47.4478 24.5522 47 24 47C23.4477 47 23 47.4478 23 48C23 48.5523 23.4477 49 24 49Z" fill="#1D1D35"/>
<path d="M32 49C32.5522 49 33 48.5523 33 48C33 47.4478 32.5522 47 32 47C31.4477 47 31 47.4478 31 48C31 48.5523 31.4477 49 32 49Z" fill="#1D1D35"/>
<path d="M36 49C36.5522 49 37 48.5523 37 48C37 47.4478 36.5522 47 36 47C35.4477 47 35 47.4478 35 48C35 48.5523 35.4477 49 36 49Z" fill="#1D1D35"/>
<path d="M39 49C39.5523 49 40 48.5523 40 48C40 47.4478 39.5523 47 39 47C38.4477 47 38 47.4478 38 48C38 48.5523 38.4477 49 39 49Z" fill="#1D1D35"/>
<path d="M14 45H12V49H14V45Z" fill="#1D1D35"/>
<path d="M47 49C47.5522 49 48 48.5523 48 48C48 47.4478 47.5522 47 47 47C46.4477 47 46 47.4478 46 48C46 48.5523 46.4477 49 47 49Z" fill="#1D1D35"/>
<path d="M44 45H42V49H44V45Z" fill="#1D1D35"/>
<path d="M29 45H27V49H29V45Z" fill="#1D1D35"/>
<path d="M32 10C34.7614 10 37 7.76143 37 5C37 2.23857 34.7614 0 32 0C29.2385 0 27 2.23857 27 5C27 7.76143 29.2385 10 32 10Z" fill="#1D1D35"/>
<path d="M16.6406 27.5727C15.6507 27.9646 14.5294 27.4818 14.1365 26.4945C13.7436 25.5072 14.2277 24.3891 15.2176 23.9972L16.6406 27.5727ZM33.9763 20.7117L16.6406 27.5727L15.2176 23.9972L32.5534 17.1362L35.1718 18.6345L33.9763 20.7117ZM32.5534 17.1362C33.5433 16.7443 34.6644 17.2271 35.0574 18.2144C35.4503 19.2017 34.9662 20.3198 33.9763 20.7117L32.5534 17.1362ZM33.9727 36.3654L31.3578 19.2133L35.1718 18.6345L37.7866 35.7867L36.4898 37.9009L33.9727 36.3654ZM37.7866 35.7867C37.9462 36.8365 37.2224 37.8188 36.1698 37.978C35.1171 38.1372 34.1323 37.4152 33.9727 36.3654L37.7866 35.7867ZM42.681 35.8427L36.4898 37.9009L35.2695 34.2512L41.4607 32.193L42.681 35.8427ZM41.4607 32.193C42.471 31.8571 43.5637 32.4017 43.9005 33.4093C44.2373 34.417 43.6913 35.5068 42.681 35.8427L41.4607 32.193Z" fill="#1D1D35"/>
<path d="M7.60474 21.1072C7.00799 22.022 5.78923 22.2755 4.88371 21.6726C3.97819 21.0697 3.72731 19.8383 4.32407 18.9234L7.60474 21.1072ZM15.4501 9.07656L7.60474 21.1072L4.32407 18.9234L12.1695 6.89284L14.1022 6.02291L15.4501 9.07656ZM12.1695 6.89284C12.7662 5.97796 13.9849 5.7245 14.8904 6.32741C15.796 6.93033 16.0468 8.16168 15.4501 9.07656L12.1695 6.89284ZM23.7438 11.5032L13.5173 9.94641L14.1022 6.02291L24.3287 7.57976L23.7438 11.5032ZM24.3287 7.57976C25.4004 7.74249 26.139 8.75407 25.9779 9.83693C25.8169 10.9198 24.8156 11.6659 23.7438 11.5032L24.3287 7.57976Z" fill="#1D1D35"/>
</svg>
