<svg width="53" height="52" viewBox="0 0 53 52" fill="none" xmlns="http://www.w3.org/2000/svg">
<path d="M45 5.50003C45 3.01473 42.9853 1 40.5 1C38.0147 1 36 3.01473 36 5.50003C36 7.98534 38.0147 10 40.5 10C42.9853 10 45 7.98534 45 5.50003Z" fill="#1D1D35"/>
<path fill-rule="evenodd" clip-rule="evenodd" d="M45.6736 6.00003C45.6736 3.41885 43.5812 1.3264 41 1.3264C38.4189 1.3264 36.3264 3.41885 36.3264 6.00003C36.3264 8.58121 38.4189 10.6736 41 10.6736C43.5812 10.6736 45.6736 8.58121 45.6736 6.00003ZM45.2425 1.75748C46.3275 2.84248 47 4.34335 47 6.00003C47 7.65671 46.3275 9.15752 45.2425 10.2425C44.1575 11.3275 42.6567 12 41 12C39.3434 12 37.8425 11.3275 36.7575 10.2425C35.6725 9.15752 35 7.65671 35 6.00003C35 4.34335 35.6725 2.84248 36.7575 1.75748C37.8425 0.672486 39.3434 0 41 0C42.6567 0 44.1575 0.672486 45.2425 1.75748Z" fill="#EFEFEF"/>
<path fill-rule="evenodd" clip-rule="evenodd" d="M25.4562 27.0601C24.5352 27.4313 23.4916 26.9735 23.1267 26.0363C22.7618 25.0991 23.2118 24.0371 24.1328 23.6659L40.3216 17.1289C41.2426 16.7576 42.2862 17.2155 42.651 18.1527C42.7028 18.285 42.7375 18.4194 42.7579 18.5545L44.8845 32.7499L48.6436 31.4746C49.5837 31.1587 50.5986 31.6776 50.9091 32.6342C51.2195 33.5908 50.7096 34.6236 49.7695 34.9394L44.1453 36.8471C44.0037 36.9101 43.8525 36.9552 43.6925 36.9794C42.7096 37.1297 41.7926 36.4405 41.6449 35.4403L39.5428 21.3717L25.4562 27.0601Z" fill="#1D1D35"/>
<path fill-rule="evenodd" clip-rule="evenodd" d="M26.3539 28.8604C25.5433 29.1872 24.6729 29.1474 23.9234 28.8178L23.9213 28.8227C23.1759 28.4952 22.5507 27.8731 22.2265 27.0389H22.2216C21.9008 26.2132 21.94 25.3265 22.2636 24.5631L22.2587 24.561C22.5803 23.8017 23.1903 23.1656 24.0099 22.8346L40.3473 16.2307V16.2258C41.1579 15.899 42.0277 15.9389 42.7779 16.2685L42.7799 16.2636C43.5233 16.5897 44.1471 17.2104 44.4727 18.0424L44.4747 18.0417C44.5249 18.1691 44.5654 18.2915 44.5943 18.4014C44.6266 18.5246 44.6513 18.6442 44.6685 18.759L46.5694 31.4608L48.8207 30.696V30.6911C49.6506 30.4125 50.519 30.5028 51.2485 30.8765C51.9761 31.2495 52.5655 31.9059 52.8403 32.7534C53.1137 33.5987 53.0251 34.4839 52.6582 35.2264C52.2921 35.9675 51.647 36.5679 50.8157 36.8478L50.8143 36.8436L45.2174 38.7435C45.0924 38.7981 44.9729 38.8415 44.8622 38.8737L44.8615 38.8716C44.7227 38.9122 44.5853 38.9437 44.4576 38.9632V38.964C43.5926 39.0963 42.7511 38.8569 42.0943 38.3643L42.0937 38.3649C41.4348 37.8695 40.9608 37.1186 40.8296 36.2334H40.8289L38.9664 23.7569L26.3539 28.8556V28.8604ZM25.8497 27.5595C24.9202 27.9346 23.867 27.4721 23.4988 26.5253C23.1305 25.5785 23.5846 24.5056 24.5141 24.1306L40.8516 17.5267C41.7811 17.1516 42.8342 17.6142 43.2025 18.561C43.2547 18.6946 43.2897 18.8304 43.3103 18.9668L45.4565 33.3076L49.2501 32.0193C50.1988 31.7002 51.2231 32.2243 51.5364 33.1908C51.8496 34.1572 51.3351 35.2005 50.3864 35.5196L44.7104 37.4468C44.5675 37.5105 44.415 37.556 44.2535 37.5805C43.2615 37.7323 42.3361 37.0361 42.1871 36.0256L40.0656 21.8129L25.8497 27.5595Z" fill="#EFEFEF"/>
<path fill-rule="evenodd" clip-rule="evenodd" d="M17.102 20.2195C16.5896 21.0183 15.5417 21.2404 14.7619 20.7155C13.9821 20.1907 13.7653 19.1173 14.2777 18.3186L21.0562 7.78032C21.4301 7.19767 22.088 6.92239 22.7197 7.01895L31.556 8.37671C32.482 8.51925 33.1201 9.40407 32.9809 10.3526C32.8418 11.3011 31.978 11.9548 31.052 11.8122L23.2814 10.6127L17.102 20.2195Z" fill="#1D1D35"/>
<path fill-rule="evenodd" clip-rule="evenodd" d="M18.5643 21.597C18.1055 22.3145 17.4034 22.774 16.6444 22.9352C15.8879 23.0965 15.0687 22.9601 14.3692 22.4884L14.3666 22.4925C13.6671 22.0216 13.2201 21.3007 13.0631 20.5214C12.906 19.7442 13.0389 18.9024 13.4996 18.1829L20.4161 7.40511C20.7459 6.89118 21.1993 6.50826 21.7084 6.2738C22.2371 6.03195 22.8241 5.94595 23.3915 6.03329L32.4078 7.4219C33.2382 7.54888 33.9423 8.0131 34.4062 8.65871L34.4055 8.65936C34.8662 9.30161 35.09 10.1246 34.9663 10.9704H34.9657C34.8407 11.8202 34.3885 12.5417 33.7617 13.0167L33.761 13.016C33.1355 13.4889 32.3332 13.7187 31.51 13.5918L24.4024 12.492L18.5604 21.5943L18.5643 21.597ZM17.4702 20.862C16.9474 21.6789 15.8781 21.906 15.0824 21.3693C14.2867 20.8325 14.0656 19.7348 14.5884 18.9178L21.505 8.14009C21.8864 7.5442 22.5578 7.26266 23.2023 7.36142L32.2187 8.75003C33.1636 8.89581 33.8146 9.80074 33.6726 10.7708C33.5306 11.7409 32.6493 12.4094 31.7044 12.2636L23.7755 11.0369L17.4702 20.862Z" fill="#EFEFEF"/>
<path d="M39 6.5C39 4.01468 36.9853 2 34.5 2C32.0147 2 30 4.01468 30 6.5C30 8.98532 32.0147 11 34.5 11C36.9853 11 39 8.98532 39 6.5Z" fill="#1D1D35"/>
<path fill-rule="evenodd" clip-rule="evenodd" d="M39.6736 7C39.6736 4.41881 37.5812 2.32641 35 2.32641C32.4188 2.32641 30.3264 4.41881 30.3264 7C30.3264 9.58119 32.4188 11.6736 35 11.6736C37.5812 11.6736 39.6736 9.58119 39.6736 7ZM39.2425 2.75749C40.3275 3.8425 41 5.34331 41 7C41 8.65669 40.3275 10.1575 39.2425 11.2425C38.1575 12.3275 36.6567 13 35 13C33.3433 13 31.8425 12.3275 30.7575 11.2425C29.6725 10.1575 29 8.65669 29 7C29 5.34331 29.6725 3.8425 30.7575 2.75749C31.8425 1.67249 33.3433 1 35 1C36.6567 1 38.1575 1.67249 39.2425 2.75749Z" fill="#EFEFEF"/>
<path fill-rule="evenodd" clip-rule="evenodd" d="M19.4562 28.0601C18.5351 28.4313 17.4916 27.9735 17.1267 27.0362C16.7618 26.099 17.2118 25.0371 18.1329 24.6659L34.3215 18.1289C35.2425 17.7576 36.2861 18.2155 36.651 19.1527C36.7027 19.285 36.7374 19.4194 36.7579 19.5545L38.8845 33.7498L42.6435 32.4745C43.5836 32.1587 44.5986 32.6775 44.9091 33.6341C45.2195 34.5907 44.7096 35.6236 43.7695 35.9394L38.1452 37.8471C38.0036 37.9101 37.8525 37.9552 37.6926 37.9794C36.7096 38.1297 35.7926 37.4405 35.6449 36.4402L33.5427 22.3717L19.4562 28.0601Z" fill="#1D1D35"/>
<path fill-rule="evenodd" clip-rule="evenodd" d="M20.3539 29.8604C19.5432 30.1872 18.6728 30.1473 17.9233 29.8177L17.9212 29.8227C17.1759 29.4952 16.5507 28.873 16.2264 28.0389H16.2217C15.9008 27.2131 15.94 26.3265 16.2635 25.563L16.2588 25.561C16.5803 24.8017 17.1903 24.1655 18.0099 23.8345L34.3473 17.2307V17.2258C35.158 16.899 36.0277 16.9389 36.7779 17.2685L36.78 17.2636C37.5233 17.5897 38.1471 18.2104 38.4727 19.0424L38.4748 19.0417C38.5249 19.1691 38.5655 19.2915 38.5943 19.4014C38.6266 19.5246 38.6513 19.6443 38.6685 19.759L40.5694 32.4609L42.8207 31.696V31.6911C43.6506 31.4126 44.5189 31.5029 45.2485 31.8766C45.976 32.2496 46.5655 32.9059 46.8403 33.7534C47.1137 34.5987 47.0251 35.4839 46.6583 36.2264C46.2921 36.9675 45.647 37.5679 44.8157 37.8478L44.8144 37.8436L39.2174 39.7436C39.0924 39.7982 38.9728 39.8415 38.8622 39.8737L38.8616 39.8717C38.7228 39.9123 38.5854 39.9437 38.4576 39.9633V39.964C37.5927 40.0963 36.7511 39.857 36.0943 39.3643L36.0936 39.365C35.4348 38.8696 34.9608 38.1187 34.8296 37.2334H34.8289L32.9664 24.7569L20.3539 29.8555V29.8604ZM19.8497 28.5595C18.9202 28.9346 17.867 28.4721 17.4988 27.5252C17.1306 26.5784 17.5847 25.5057 18.5142 25.1306L34.8516 18.5267C35.7811 18.1516 36.8342 18.6142 37.2024 19.561C37.2546 19.6946 37.2897 19.8304 37.3103 19.9668L39.4565 34.3076L43.2501 33.0193C44.1988 32.7002 45.2231 33.2243 45.5364 34.1907C45.8497 35.1571 45.3351 36.2005 44.3864 36.5196L38.7104 38.4469C38.5675 38.5106 38.415 38.556 38.2536 38.5805C37.2616 38.7324 36.3362 38.0361 36.1871 37.0256L34.0656 22.8129L19.8497 28.5595Z" fill="#EFEFEF"/>
<path fill-rule="evenodd" clip-rule="evenodd" d="M11.102 21.2196C10.5896 22.0184 9.54174 22.2404 8.76194 21.7155C7.98213 21.1907 7.76532 20.1173 8.27771 19.3186L15.0562 8.78027C15.43 8.19761 16.088 7.92239 16.7197 8.01895L25.556 9.37672C26.482 9.51926 27.1201 10.4041 26.9809 11.3526C26.8418 12.3011 25.978 12.9547 25.0519 12.8122L17.2814 11.6127L11.102 21.2196Z" fill="#1D1D35"/>
<path fill-rule="evenodd" clip-rule="evenodd" d="M12.5643 22.597C12.1056 23.3145 11.4034 23.774 10.6443 23.9352C9.8879 24.0965 9.06868 23.9601 8.36917 23.4884L8.36655 23.4924C7.66704 23.0215 7.22012 22.3007 7.06308 21.5214C6.90603 20.7441 7.03886 19.9024 7.49953 19.1829L14.4161 8.40517C14.7459 7.89124 15.1994 7.50826 15.7084 7.2738C16.2372 7.03195 16.8241 6.94595 17.3914 7.03329L26.4078 8.42196C27.2382 8.54893 27.9423 9.0131 28.4062 9.6587L28.4056 9.65942C28.8663 10.3017 29.09 11.1246 28.9663 11.9704H28.9657C28.8407 12.8202 28.3886 13.5417 27.7617 14.0167L27.761 14.016C27.1354 14.489 26.3332 14.7188 25.5101 14.5918L18.4024 13.492L12.5603 22.5943L12.5643 22.597ZM11.4701 21.862C10.9473 22.6789 9.87814 22.906 9.08244 22.3692C8.28675 21.8324 8.06552 20.7347 8.58835 19.9178L15.5049 9.14008C15.8864 8.5442 16.5578 8.26272 17.2023 8.36148L26.2187 9.75009C27.1636 9.89587 27.8147 10.8008 27.6727 11.7709C27.5307 12.741 26.6493 13.4094 25.7044 13.2636L17.7755 12.0369L11.4701 21.862Z" fill="#EFEFEF"/>
<path d="M5.99996 52C6.55225 52 7 51.5523 7 51C7 50.4478 6.55225 50 5.99996 50C5.44768 50 5 50.4478 5 51C5 51.5523 5.44768 52 5.99996 52Z" fill="#1D1D35"/>
<path d="M8.99996 52C9.55225 52 10 51.5523 10 51C10 50.4478 9.55225 50 8.99996 50C8.44768 50 8 50.4478 8 51C8 51.5523 8.44768 52 8.99996 52Z" fill="#1D1D35"/>
<path d="M13 52C13.5522 52 14 51.5523 14 51C14 50.4478 13.5522 50 13 50C12.4477 50 12 50.4478 12 51C12 51.5523 12.4477 52 13 52Z" fill="#1D1D35"/>
<path d="M20 52C20.5522 52 21 51.5523 21 51C21 50.4478 20.5522 50 20 50C19.4477 50 19 50.4478 19 51C19 51.5523 19.4477 52 20 52Z" fill="#1D1D35"/>
<path d="M24 52C24.5522 52 25 51.5523 25 51C25 50.4478 24.5522 50 24 50C23.4477 50 23 50.4478 23 51C23 51.5523 23.4477 52 24 52Z" fill="#1D1D35"/>
<path d="M27 52C27.5522 52 28 51.5523 28 51C28 50.4478 27.5522 50 27 50C26.4477 50 26 50.4478 26 51C26 51.5523 26.4477 52 27 52Z" fill="#1D1D35"/>
<path d="M34 52C34.5522 52 35 51.5523 35 51C35 50.4478 34.5522 50 34 50C33.4477 50 33 50.4478 33 51C33 51.5523 33.4477 52 34 52Z" fill="#1D1D35"/>
<path d="M38 52C38.5522 52 39 51.5523 39 51C39 50.4478 38.5522 50 38 50C37.4477 50 37 50.4478 37 51C37 51.5523 37.4477 52 38 52Z" fill="#1D1D35"/>
<path d="M42 52C42.5522 52 43 51.5523 43 51C43 50.4478 42.5522 50 42 50C41.4477 50 41 50.4478 41 51C41 51.5523 41.4477 52 42 52Z" fill="#1D1D35"/>
<path d="M17 48H15V52H17V48Z" fill="#1D1D35"/>
<path d="M49 52C49.5522 52 50 51.5523 50 51C50 50.4478 49.5522 50 49 50C48.4477 50 48 50.4478 48 51C48 51.5523 48.4477 52 49 52Z" fill="#1D1D35"/>
<path d="M46 48H44V52H46V48Z" fill="#1D1D35"/>
<path d="M32 48H30V52H32V48Z" fill="#1D1D35"/>
<path d="M32 9.49997C32 7.01466 29.9853 5 27.5 5C25.0147 5 23 7.01466 23 9.49997C23 11.9853 25.0147 14 27.5 14C29.9853 14 32 11.9853 32 9.49997Z" fill="#1D1D35"/>
<path fill-rule="evenodd" clip-rule="evenodd" d="M32.6736 9.99997C32.6736 7.41879 30.5811 5.3264 28 5.3264C25.4188 5.3264 23.3264 7.41879 23.3264 9.99997C23.3264 12.5811 25.4188 14.6736 28 14.6736C30.5811 14.6736 32.6736 12.5811 32.6736 9.99997ZM32.2425 5.75748C33.3275 6.84248 34 8.34329 34 9.99997C34 11.6566 33.3275 13.1575 32.2425 14.2425C31.1575 15.3275 29.6566 16 28 16C26.3433 16 24.8425 15.3275 23.7575 14.2425C22.6725 13.1575 22 11.6566 22 9.99997C22 8.34329 22.6725 6.84248 23.7575 5.75748C24.8425 4.67249 26.3433 4 28 4C29.6566 4 31.1575 4.67249 32.2425 5.75748Z" fill="#EFEFEF"/>
<path fill-rule="evenodd" clip-rule="evenodd" d="M12.3685 30.5571C11.4804 30.9098 10.474 30.4748 10.1222 29.5844C9.77033 28.6941 10.2042 27.6853 11.0924 27.3326L26.7029 21.1225C27.591 20.7698 28.5974 21.2048 28.9492 22.0951C28.9991 22.2208 29.0325 22.3484 29.0522 22.4768L31.1029 35.9624L34.7277 34.7509C35.6342 34.4508 36.613 34.9436 36.9123 35.8524C37.2116 36.7612 36.72 37.7424 35.8134 38.0425L30.39 39.8547C30.2535 39.9146 30.1078 39.9574 29.9535 39.9804C29.0057 40.1232 28.1214 39.4685 27.979 38.5183L25.952 25.1531L12.3685 30.5571Z" fill="#1D1D35"/>
<path fill-rule="evenodd" clip-rule="evenodd" d="M13.2135 32.3013C12.429 32.6139 11.5866 32.5758 10.8613 32.2605L10.8593 32.2651C10.138 31.9519 9.53297 31.3569 9.21916 30.559H9.21449C8.90401 29.7691 8.94193 28.9211 9.25507 28.1908L9.25039 28.1888C9.56154 27.4625 10.1519 26.8541 10.9451 26.5374L26.7554 20.2207V20.216C27.5399 19.9034 28.3816 19.9415 29.1076 20.2568L29.1096 20.2521C29.829 20.564 30.4326 21.1577 30.7477 21.9536L30.7498 21.953C30.7983 22.0748 30.8375 22.1919 30.8654 22.297C30.8967 22.4148 30.9206 22.5293 30.9373 22.6391L32.7768 34.7887L34.9555 34.0571V34.0524C35.7586 33.786 36.599 33.8723 37.305 34.2298C38.0091 34.5865 38.5795 35.2144 38.8455 36.025C39.1101 36.8335 39.0243 37.6803 38.6692 38.3905C38.3149 39.0994 37.6906 39.6737 36.8861 39.9415L36.8848 39.9374L31.4685 41.7547C31.3475 41.807 31.2318 41.8485 31.1248 41.8793L31.124 41.8772C30.9897 41.9161 30.8568 41.9462 30.7331 41.9649V41.9656C29.8961 42.0921 29.0817 41.8632 28.4461 41.392L28.4454 41.3926C27.8079 40.9187 27.3492 40.2005 27.2222 39.3537H27.2215L25.4191 27.4196L13.2135 32.2967V32.3013ZM12.7255 31.057C11.826 31.4157 10.8068 30.9733 10.4504 30.0676C10.0941 29.162 10.5335 28.1359 11.433 27.7771L27.2434 21.4603C28.1429 21.1015 29.1622 21.544 29.5185 22.4496C29.569 22.5775 29.6029 22.7073 29.6228 22.8378L31.6998 36.5552L35.371 35.3228C36.2891 35.0176 37.2804 35.5189 37.5836 36.4433C37.8867 37.3677 37.3888 38.3657 36.4706 38.671L30.9778 40.5144C30.8395 40.5753 30.6919 40.6188 30.5357 40.6423C29.5757 40.7875 28.6801 40.1215 28.5359 39.155L26.4829 25.5601L12.7255 31.057Z" fill="#EFEFEF"/>
<path fill-rule="evenodd" clip-rule="evenodd" d="M4.10198 24.2196C3.58959 25.0184 2.5417 25.2404 1.76189 24.7155C0.982085 24.1907 0.765341 23.1174 1.27773 22.3186L8.05613 11.7803C8.43 11.1976 9.08799 10.9224 9.71966 11.019L18.556 12.3767C19.482 12.5193 20.1201 13.4041 19.9809 14.3526C19.8418 15.3011 18.978 15.9548 18.0519 15.8122L10.2814 14.6127L4.10198 24.2196Z" fill="#1D1D35"/>
<path fill-rule="evenodd" clip-rule="evenodd" d="M5.56426 25.597C5.10556 26.3145 4.40344 26.774 3.64439 26.9352C2.88796 27.0965 2.06867 26.9601 1.36917 26.4884L1.36655 26.4925C0.667041 26.0216 0.220122 25.3007 0.0630766 24.5214C-0.0939686 23.7442 0.0388604 22.9024 0.499526 22.1829L7.41607 11.4051C7.74587 10.8912 8.19934 10.5083 8.70842 10.2738C9.23714 10.0319 9.82408 9.94595 10.3914 10.0333L19.4078 11.4219C20.2381 11.5489 20.9422 12.0131 21.4062 12.6587L21.4055 12.6594C21.8662 13.3016 22.09 14.1246 21.9663 14.9704H21.9657C21.8407 15.8202 21.3885 16.5417 20.7617 17.0167L20.761 17.016C20.1355 17.4889 19.3332 17.7187 18.51 17.5918L11.4024 16.492L5.5603 25.5943L5.56426 25.597ZM4.4702 24.862C3.94737 25.6789 2.87814 25.906 2.08244 25.3692C1.28674 24.8324 1.06558 23.7348 1.58841 22.9178L8.5049 12.14C8.88638 11.5441 9.55778 11.2627 10.2023 11.3614L19.2187 12.75C20.1636 12.8958 20.8146 13.8007 20.6726 14.7708C20.5306 15.7409 19.6492 16.4094 18.7043 16.2636L10.7755 15.0369L4.4702 24.862Z" fill="#EFEFEF"/>
</svg>
