<svg width="69" height="54" viewBox="0 0 69 54" fill="none" xmlns="http://www.w3.org/2000/svg">
<path d="M0.867941 26L0 24.4505L42.5281 0.861013L46 0L43.3961 2.41049L0.867941 26Z" fill="#1D1D35"/>
<path d="M40.5 16C42.9853 16 45 13.9853 45 11.5C45 9.01476 42.9853 7 40.5 7C38.0148 7 36 9.01476 36 11.5C36 13.9853 38.0148 16 40.5 16Z" fill="#1D1D35"/>
<path d="M20.587 14.0943C19.852 13.4317 19.8002 12.3056 20.4712 11.5797C21.1422 10.8539 22.2825 10.8027 23.0175 11.4653L20.587 14.0943ZM28.8401 21.5347L20.587 14.0943L23.0175 11.4653L31.2705 18.9057L30.152 21.9975L28.8401 21.5347ZM31.2705 18.9057C32.0055 19.5683 32.0573 20.6944 31.3863 21.4203C30.7154 22.1461 29.5751 22.1973 28.8401 21.5347L31.2705 18.9057ZM67.2944 20.0257L30.152 21.9975L29.9586 18.4428L67.101 16.4711L67.2944 20.0257ZM67.101 16.4711C68.0948 16.4186 68.9442 17.1714 68.9974 18.1529C69.0505 19.1344 68.2883 19.9732 67.2944 20.0257L67.101 16.4711Z" fill="#1D1D35"/>
<path d="M43.1999 32.6118C42.7512 31.7384 43.0832 30.66 43.9415 30.2034C44.7997 29.7468 45.8595 30.0847 46.3081 30.9581L43.1999 32.6118ZM53.6918 53.0419L43.1999 32.6118L46.3081 30.9581L56.8001 51.3882L53.6918 53.0419ZM56.8001 51.3882C57.2488 52.2616 56.9167 53.34 56.0585 53.7966C55.2002 54.2532 54.1405 53.9153 53.6918 53.0419L56.8001 51.3882Z" fill="#1D1D35"/>
<path d="M49.1659 30.5886C48.6768 29.7621 48.9704 28.7052 49.821 28.2299C50.6716 27.7547 51.7594 28.04 52.2485 28.8664L49.1659 30.5886ZM54.6808 39.9025L49.1659 30.5886L52.2485 28.8664L57.7634 38.1803L56.8429 40.6597L54.6808 39.9025ZM57.7634 38.1803C58.2525 39.0068 57.9589 40.0637 57.1083 40.539C56.2577 41.0143 55.1699 40.729 54.6808 39.9025L57.7634 38.1803ZM41.1571 42.6541L55.6013 37.423L56.8429 40.6597L42.3988 45.8909L41.1571 42.6541ZM42.3988 45.8909C41.479 46.2238 40.455 45.7694 40.1123 44.8757C39.7697 43.982 40.2373 42.9871 41.1571 42.6541L42.3988 45.8909Z" fill="#1D1D35"/>
</svg>
