<svg width="35" height="48" viewBox="0 0 35 48" fill="none" xmlns="http://www.w3.org/2000/svg">
<path d="M9.75069 6.60024C11.2508 6.60024 12.4504 7.65016 12.9005 9C13.0502 9 13.35 9 13.5003 9C16.0497 9 18 7.04973 18 4.50031C18 1.95025 16.0497 0 13.5003 0C10.9503 0 9 1.95025 9 4.50031C9.15027 5.25037 9.30053 6.00045 9.75069 6.60024Z" fill="#1D1D35"/>
<path d="M8.99997 12C10.0767 12 11 11.0767 11 9.99997C11 8.92322 10.0767 8 8.99997 8C7.92322 8 7 8.92322 7 9.99997C7 11.0773 7.92322 12 8.99997 12Z" fill="#1D1D35"/>
<path fill-rule="evenodd" clip-rule="evenodd" d="M6.83337 12.7358C6.87931 12.6471 6.9326 12.5641 6.99201 12.4878C7.60886 13.0377 8.40883 13.3767 9.26456 13.3767C9.47099 13.3767 9.6738 13.3575 9.87227 13.3197C9.90657 13.634 9.85141 13.96 9.6952 14.2606C9.68785 14.2749 6.96814 19.5449 8.39784 19.7129C9.00978 19.7848 9.61802 18.3101 10.2594 16.7512C11.3791 14.0294 12.5656 11.1514 15.8311 11.0584C20.1839 10.9351 33.3729 11.0454 33.4102 11.0454C34.3015 11.059 35.0133 11.8029 34.9998 12.7048C34.9863 13.6067 34.2512 14.3269 33.36 14.3133C33.3232 14.3133 20.2391 14.2036 15.9194 14.3263C14.7488 14.3591 13.9764 16.2349 13.2474 18.0071C12.1234 20.7388 11.0582 23.3223 8.0303 22.9672C2.00768 22.2593 6.8199 12.7624 6.83337 12.7358Z" fill="#1D1D35"/>
<path fill-rule="evenodd" clip-rule="evenodd" d="M3.09096 47.0003C2.74212 47.8353 1.79578 48.2241 0.978347 47.8678C0.160919 47.5121 -0.219046 46.5454 0.129186 45.7104C0.156678 45.6436 9.82099 22.097 17.1882 23.0268C24.3795 23.9348 30.9104 45.7441 30.9287 45.8059C31.1896 46.6746 30.7119 47.5957 29.8615 47.8622C29.011 48.1287 28.1093 47.64 27.8484 46.7719C27.8319 46.7151 21.8912 26.9372 16.8003 26.2945C11.8841 25.6741 3.11601 46.9398 3.09096 47.0003Z" fill="#1D1D35"/>
</svg>
