<svg width="158" height="20" viewBox="0 0 158 20" fill="none" xmlns="http://www.w3.org/2000/svg">
<path d="M14.2532 1.09276C14.2611 1.06141 14.2748 0.992916 14.588 1.0006C17.64 1.1299 25.1419 1.65889 33.3779 3.80814C44.1002 6.61764 48.2524 9.05881 44.8265 9.77783C41.4299 10.4831 28.239 10.1383 14.1299 19.1311C13.1432 19.7502 11.6671 20.5613 7.98861 19.4446C6.59082 19.0233 4.87784 18.4258 2.8575 17.3776C-5.80528 12.8695 18.4055 9.79351 22.687 9.20379C27.5968 8.53178 32.5439 8.11839 28.1098 5.69093C27.0389 5.10905 24.2394 3.57891 14.588 1.2984C14.588 1.2984 14.2219 1.22214 14.2532 1.09276Z" fill="#C0FD14"/>
<path d="M56.4477 8.2493H59.7863C61.9425 8.2493 63.3748 8.00669 63.5816 6.22493C63.6343 5.77658 63.5504 5.43498 63.3143 5.17102C62.8655 4.67026 61.8664 4.62368 59.8917 4.62368H57.5755L56.4477 8.2493ZM57.5443 15.3899C59.2439 15.3899 61.3103 15.5335 61.4859 13.2821C61.5309 12.7367 61.3943 12.2903 61.0898 11.9564C60.6625 11.5003 59.8761 11.3489 58.8107 11.3489H55.472L54.2134 15.3899H57.5443ZM61.9113 1.24261C64.5183 1.24261 66.4325 1.82683 67.4374 2.92538C68.0404 3.59306 68.2999 4.44317 68.2004 5.45051C68.0033 7.54281 67.0042 8.69571 64.5261 9.68945L64.2373 9.80203L64.5046 9.96118C65.5642 10.5765 66.1496 11.774 66.0208 13.0705C65.4725 18.7574 60.6918 18.7574 55.632 18.7574H51.546C50.6542 18.7496 49.6317 18.8175 49.2902 18.4682C48.7868 17.9538 49.0912 17.1115 49.0912 17.1115L53.6261 2.53914C53.8934 1.70649 54.3656 1.24261 56.1959 1.24261H61.9113ZM96.5179 4.73819C93.8875 4.78291 92.3108 6.21717 91.4035 9.37114L90.6034 12.2515C90.4882 12.6998 90.4434 13.0938 90.4648 13.449C90.6034 14.6252 91.5088 15.223 93.1557 15.2618C95.7938 15.2152 97.3627 13.7828 98.2701 10.6289L99.0779 7.74854C99.1853 7.30019 99.2301 6.89843 99.2165 6.551C99.0779 5.37481 98.1706 4.76925 96.5179 4.73819ZM91.8601 19C89.5126 19 87.4618 18.1421 86.373 16.7175C85.5339 15.6112 85.3212 14.2001 85.7544 12.6455L86.6618 9.4546C88.4453 3.21458 91.2961 1 97.554 1H97.8135C100.169 1 102.22 1.85788 103.308 3.28251C104.147 4.38883 104.36 5.79987 103.927 7.35454L103.02 10.5454C101.236 16.7854 99.3219 19 92.1196 19H91.8601ZM153.426 4.6625L149.636 4.65473C148.235 4.65473 146.909 4.88182 146.749 6.51995C146.68 7.19538 147.205 7.53504 148.257 7.9601L151.375 9.07419C153.143 9.69722 154.074 11.1296 153.861 12.9036C153.282 17.7636 149.728 18.7574 144.569 18.7574H138.738C138.494 18.7574 138.303 18.5439 138.334 18.2935C138.684 15.2696 141.847 15.3453 141.847 15.3453H145.681C147.748 15.3453 148.868 14.5573 149.02 12.9948C149.096 12.2359 148.632 11.6672 147.519 11.1665L144.425 10.0602C142.725 9.37115 141.831 8.13479 141.991 6.66358C142.495 2.13737 145.757 1.22709 150.864 1.22709H156.626C156.864 1.22709 157.038 1.44059 156.993 1.67544C156.809 2.60707 156.109 4.6625 153.426 4.6625ZM125.064 18.7574C125.315 18.7574 125.589 18.5594 125.657 18.3246L127.838 11.3276C128.067 11.3338 128.279 11.4634 128.387 11.6672L131.481 17.6491C131.825 18.3246 132.525 18.7496 133.281 18.7496H136.504C136.717 18.7496 136.863 18.5225 136.764 18.3323L132.853 10.7356C132.754 10.5532 132.801 10.3261 132.953 10.1902L142.335 1.59198C142.473 1.46201 142.381 1.23485 142.19 1.23485H138.395C137.763 1.23485 137.144 1.48523 136.695 1.93358L129.271 8.83934C129.072 9.02954 128.806 9.12853 128.531 9.12853L130.855 1.63662C130.917 1.43282 130.765 1.23485 130.551 1.23485H126.831C126.58 1.23485 126.336 1.40177 126.267 1.63662L121.054 18.3692C121.001 18.5672 121.138 18.7574 121.342 18.7574H125.064ZM115.055 4.73819C112.425 4.78291 110.854 6.21717 109.949 9.37114L109.141 12.2515C109.033 12.6998 108.987 13.0938 109.002 13.449C109.141 14.6252 110.046 15.223 111.693 15.2618C114.331 15.2152 115.908 13.7828 116.815 10.6289L117.615 7.74854C117.723 7.30019 117.768 6.89843 117.754 6.551C117.615 5.37481 116.708 4.76925 115.063 4.73819H115.055ZM110.405 19C108.05 19 105.999 18.1421 104.91 16.7175C104.071 15.6112 103.859 14.2001 104.292 12.6455L105.199 9.4546C106.983 3.21458 109.834 1 116.099 1H116.359C118.706 1 120.757 1.85788 121.846 3.28251C122.685 4.38883 122.898 5.79987 122.464 7.35454L121.557 10.5454C119.774 16.7854 117.859 19 110.665 19H110.405ZM75.3578 4.60233L73.8495 9.43131L76.7218 9.43908C78.9326 9.43908 80.8391 9.43908 81.1122 6.59564C81.1669 6.06578 81.0518 5.65624 80.7708 5.34376C80.3044 4.82942 79.3834 4.60233 77.7657 4.60233H75.3578ZM71.4025 2.53138C71.6679 1.69873 72.1421 1.23485 73.9704 1.23485H78.8721C81.9279 1.23485 83.926 1.78801 84.9778 2.94091C85.6627 3.69981 85.93 4.69355 85.809 5.98232C85.5027 9.09748 83.887 10.887 80.3883 11.9642L80.2361 12.0165L82.6596 18.34C82.7356 18.536 82.5835 18.7573 82.3708 18.7573H79.36C78.5287 18.7573 77.8204 18.2721 77.5921 17.552L75.7695 12.789H72.7977L71.0747 18.3245C71.0063 18.5516 70.7313 18.7573 70.4795 18.7573H66.7525C66.5535 18.7573 66.4091 18.5593 66.4696 18.3691L71.4025 2.53138Z" fill="#C0FD14"/>
</svg>
