<svg width="21" height="21" viewBox="0 0 21 21" fill="none" xmlns="http://www.w3.org/2000/svg">
<path d="M2.88342 10.9999H14.5712L16 4H1.71179C1.6073 4.00038 1.50417 4.0232 1.40966 4.06688C1.31516 4.11055 1.23158 4.174 1.16482 4.25276C1.09806 4.33152 1.04975 4.42367 1.02329 4.52272C0.996827 4.62176 0.992861 4.72528 1.01167 4.82599L2.1833 10.4259C2.21063 10.5879 2.2963 10.7348 2.42476 10.8401C2.55321 10.9454 2.71595 11.0021 2.88342 10.9999V10.9999Z" stroke="#061A84" stroke-width="2" stroke-linecap="round" stroke-linejoin="round"/>
<path d="M16 4L16.672 1.6C16.7089 1.4306 16.8071 1.27834 16.9499 1.169C17.0928 1.05967 17.2716 0.999965 17.456 1H20" stroke="#061A84" stroke-width="2" stroke-linecap="round" stroke-linejoin="round"/>
<path d="M16 11L15.34 14.36C15.3038 14.5407 15.2073 14.7031 15.067 14.8197C14.9267 14.9364 14.7511 15 14.57 15H5" stroke="#061A84" stroke-width="2" stroke-linecap="round" stroke-linejoin="round"/>
<path d="M5.5 20C5.77614 20 6 19.7761 6 19.5C6 19.2239 5.77614 19 5.5 19C5.22386 19 5 19.2239 5 19.5C5 19.7761 5.22386 20 5.5 20Z" stroke="#061A84" stroke-width="2" stroke-linecap="round" stroke-linejoin="round"/>
<path d="M12.5 20C12.7761 20 13 19.7761 13 19.5C13 19.2239 12.7761 19 12.5 19C12.2239 19 12 19.2239 12 19.5C12 19.7761 12.2239 20 12.5 20Z" stroke="#061A84" stroke-width="2" stroke-linecap="round" stroke-linejoin="round"/>
</svg>
