<svg width="12" height="15" viewBox="0 0 12 15" fill="none" xmlns="http://www.w3.org/2000/svg">
<path d="M5.1572 1.05504C5.09678 1.01902 5.02771 1 4.95734 1C4.88696 1 4.81789 1.01902 4.75747 1.05504C4.70764 1.09445 4.67401 1.15072 4.66296 1.21322C4.65191 1.27571 4.6642 1.34007 4.69752 1.39412C5.92667 3.5184 6.18649 6.41061 4.50765 8.00631C3.86172 7.46459 3.34891 6.78222 3.00868 6.01169C2.38784 6.35581 1.87331 6.86309 1.52097 7.47846C1.16863 8.09383 0.991928 8.79376 1.01006 9.50228C1.0354 10.1269 1.18567 10.7401 1.45202 11.3059C1.71838 11.8717 2.09543 12.3785 2.561 12.7967C3.02658 13.2149 3.57125 13.5359 4.16299 13.7409C4.75473 13.9458 5.38156 14.0306 6.00661 13.9902C9.2244 13.9902 10.8932 11.9956 11.0032 9.50228C11.1331 6.51034 9.00455 2.83026 5.1572 1.05504Z" stroke="#061A84" stroke-width="2" stroke-linecap="round"/>
</svg>
