<svg width="93" height="33" viewBox="0 0 93 33" fill="none" xmlns="http://www.w3.org/2000/svg">
<path d="M10.2586 32.9866C7.48758 32.877 5.22047 32.1221 3.44778 30.7199C3.10947 30.4521 2.30331 29.6489 2.03285 29.3102C1.314 28.4103 0.825279 27.5344 0.499305 26.5626C-0.503765 23.5713 0.0124789 19.646 1.97592 15.338C3.65703 11.6498 6.25106 7.99189 10.7767 2.92568C11.4434 2.1802 13.4287 0 13.4415 0C13.4462 0 13.338 0.186604 13.2019 0.413839C12.0251 2.37626 11.0183 4.68779 10.4697 6.68896C9.58862 9.89999 9.6949 12.6556 10.781 14.7923C11.5302 16.2644 12.8147 17.5395 14.259 18.2443C16.7876 19.4778 20.4895 19.5798 25.0105 18.5429C25.3217 18.4711 40.7455 14.3946 59.2857 9.48379C77.8258 4.57252 92.9976 0.557452 93 0.560758C93.0052 0.565017 49.9259 18.9184 27.5627 28.44C24.0212 29.9475 23.0741 30.3283 21.4091 30.9103C17.1529 32.3984 13.3404 33.1085 10.2586 32.9866Z" fill="#C0FD14"/>
</svg>
