<svg width="18" height="18" viewBox="0 0 18 18" fill="none" xmlns="http://www.w3.org/2000/svg">
<g clip-path="url(#clip0_836_8345)">
<path d="M9.98783 11.6509L12.5814 14.5177C13.5414 15.5794 14.0222 16.1106 14.5254 15.9807C15.0279 15.8516 15.2007 15.1532 15.5455 13.7555L17.4575 6.00265C17.9895 3.84977 18.2551 2.77411 17.6647 2.24289C17.0743 1.71167 16.0511 2.10678 14.0046 2.89622L4.5118 6.56187C2.875 7.1942 2.05659 7.50998 2.00459 8.05287C1.99847 8.10819 1.99847 8.16399 2.00459 8.21931C2.05499 8.76298 2.8718 9.08109 4.507 9.71809C5.24701 10.0066 5.61741 10.1513 5.88301 10.4274C5.91288 10.4585 5.94168 10.4907 5.96941 10.5239C6.21421 10.8194 6.31821 11.2083 6.52701 11.983L6.91822 13.4351C7.12062 14.1895 7.22222 14.5675 7.48862 14.6189C7.75502 14.6702 7.98622 14.3575 8.44942 13.7314L9.98783 11.6509ZM9.98783 11.6509L9.73423 11.3942C9.44463 11.1002 9.29983 10.954 9.29983 10.772C9.29983 10.59 9.44383 10.443 9.73423 10.1498L12.5926 7.25332" stroke="#061A84" stroke-width="1.3" stroke-linecap="round" stroke-linejoin="round"/>
</g>
<defs>
<clipPath id="clip0_836_8345">
<rect width="18" height="18" fill="white"/>
</clipPath>
</defs>
</svg>
