<svg width="18" height="18" viewBox="0 0 18 18" fill="none" xmlns="http://www.w3.org/2000/svg">
<path d="M14.8141 4.18253C14.1229 3.48812 13.2998 2.93751 12.3926 2.56281C11.4854 2.18811 10.5124 1.9968 9.53015 2.00004C5.41457 2.00004 2.0603 5.33753 2.0603 9.43252C2.0603 10.745 2.40704 12.02 3.05528 13.145L2 17L5.95729 15.965C7.05025 16.5575 8.27889 16.8725 9.53015 16.8725C13.6457 16.8725 17 13.535 17 9.44002C17 7.45253 16.2236 5.58503 14.8141 4.18253ZM9.53015 15.6125C8.41457 15.6125 7.32161 15.3125 6.36432 14.75L6.13819 14.615L3.78643 15.23L4.41206 12.95L4.26131 12.7175C3.64137 11.7328 3.31225 10.5945 3.31156 9.43252C3.31156 6.02753 6.1005 3.25254 9.52261 3.25254C11.1809 3.25254 12.7412 3.89754 13.9095 5.06753C14.4882 5.64043 14.9467 6.32194 15.2585 7.07252C15.5703 7.82311 15.7293 8.62784 15.7261 9.44002C15.7412 12.845 12.9523 15.6125 9.53015 15.6125ZM12.9372 10.9925C12.7487 10.9025 11.8291 10.4525 11.6633 10.385C11.4899 10.325 11.3693 10.295 11.2412 10.475C11.1131 10.6625 10.7588 11.0825 10.6533 11.2025C10.5477 11.33 10.4347 11.345 10.2462 11.2475C10.0578 11.1575 9.45477 10.955 8.74623 10.325C8.18844 9.83002 7.8191 9.22252 7.70603 9.03502C7.6005 8.84752 7.69095 8.75002 7.78894 8.65252C7.87186 8.57002 7.97739 8.43502 8.06784 8.33002C8.15829 8.22502 8.19598 8.14252 8.25628 8.02252C8.31658 7.89502 8.28643 7.79003 8.24121 7.70003C8.19598 7.61003 7.81909 6.69503 7.66834 6.32003C7.51759 5.96003 7.3593 6.00503 7.24623 5.99753H6.88442C6.75628 5.99753 6.5603 6.04253 6.38693 6.23003C6.22111 6.41753 5.73869 6.86753 5.73869 7.78252C5.73869 8.69752 6.40955 9.58252 6.5 9.70252C6.59045 9.83002 7.8191 11.705 9.68844 12.5075C10.1332 12.7025 10.4799 12.815 10.7513 12.8975C11.196 13.04 11.603 13.0175 11.9271 12.9725C12.2889 12.92 13.0352 12.5225 13.1859 12.0875C13.3442 11.6525 13.3442 11.285 13.2915 11.2025C13.2387 11.12 13.1256 11.0825 12.9372 10.9925Z" fill="#061A84"/>
</svg>
