<svg width="33" height="47" viewBox="0 0 33 47" fill="none" xmlns="http://www.w3.org/2000/svg">
<path d="M11.5 9C14.0197 9 16 7.02038 16 4.49997C16 1.98024 14.0204 0 11.5 0C8.98026 0 7 1.97955 7 4.49997C7 7.0197 8.98026 9 11.5 9Z" fill="#1D1D35"/>
<path d="M17.5122 12.5773C18.5888 11.1619 21.4586 9.39283 23.9697 9.57C25.9426 9.74718 27.5575 11.1619 28.6334 13.6384C28.9921 14.5229 30.0687 14.8766 30.9656 14.5229C31.8626 14.1692 32.2212 13.1075 31.8626 12.223C29.8897 7.44662 26.6606 6.20836 24.3284 6.03185C20.203 5.67883 16.0769 8.33181 14.6424 10.4546C13.5658 11.87 10.696 13.639 8.1848 13.4618C6.21193 13.2847 4.59702 11.87 3.5211 9.39352C3.16178 8.50898 2.08583 7.97813 1.18889 8.33181C0.291947 8.86267 -0.246346 9.92437 0.112295 10.8089C2.08516 15.5853 5.31428 16.8235 7.64647 17C8.00511 17 8.1848 17 8.54344 17C12.4898 17 16.0769 14.5236 17.5122 12.5773Z" fill="#1D1D35"/>
<path d="M32.7463 44.3364L20.5135 21.9578C20.3333 21.4249 19.7942 21.2477 19.4338 21.0698C18.894 20.8919 18.3541 21.0698 17.9945 21.4249C16.0159 22.846 9.17949 27.6408 9 31.371C9 32.437 9.35966 33.3243 10.0797 34.0352C12.9577 36.6994 22.3125 37.5876 25.0104 37.7648L29.5079 46.1119C29.8676 46.6449 30.4075 47 31.1268 47C31.4865 47 31.6666 47 32.0263 46.8221C32.9265 46.2898 33.2862 45.2245 32.7463 44.3364ZM12.5987 31.371C12.7789 30.305 15.2973 27.8186 18.3555 25.5102L22.853 34.0352C18.8946 33.5022 14.2176 32.6142 12.5987 31.371Z" fill="#1D1D35"/>
</svg>
