<svg width="49" height="48" viewBox="0 0 49 48" fill="none" xmlns="http://www.w3.org/2000/svg">
<path d="M26 25.4148C25.8278 25.2438 25.8278 25.2438 25.6562 25.0735L24.1087 22H14.4779C14.3057 22 14.1341 22 13.9618 22L1.23669 25.7562C0.376821 26.0975 -0.139199 26.9513 0.0330342 27.805C0.205268 28.4877 0.892874 29 1.58051 29C1.75274 29 1.92435 29 2.09659 29L14.6501 25.4148H26Z" fill="#1D1D35"/>
<path d="M40.1289 36H14.8711C13.7481 36 13 36.7497 13 37.875C13 38.6248 13.3741 39.1874 13.9355 39.3752V47.0624C13.9355 47.6251 14.3096 48 14.8711 48C15.4325 48 15.8066 47.6251 15.8066 47.0624V39.7501L39.1934 39.7494V47.0618C39.1934 47.6244 39.5675 47.9992 40.1289 47.9992C40.6904 47.9992 41.0645 47.6244 41.0645 47.0618V39.3745C41.6259 38.9996 42 38.437 42 37.8743C42 36.7497 41.0645 36 40.1289 36Z" fill="#1D1D35"/>
<path d="M23.4599 7C23.8197 6.26345 24 5.52624 24 4.60521C24 2.02659 22.0204 0 19.5 0C16.9803 0 15 2.02589 15 4.60521C15 5.52624 15.1803 6.26275 15.5401 7H23.4599Z" fill="#1D1D35"/>
<path d="M47.6937 22.0749C46.7852 21.7168 45.6955 22.2544 45.5136 23.3286L43.8787 28.5227L32.2519 21.8956L25.8936 9.89555C25.5304 9.35806 24.9852 9 24.2588 9L6.81687 9.00066C5.72649 9.00066 5 9.71685 5 10.7918C5 11.8668 5.72649 12.583 6.81687 12.583L23.1677 12.5823L29.1627 24.0448C29.3447 24.4029 29.5259 24.5823 29.8892 24.761L44.06 32.8206C44.4232 33 44.6052 33 44.9684 33C45.5136 33 46.422 32.6419 46.7852 31.7463C47.3304 29.9551 48.9653 24.4029 48.9653 24.4029C49.1466 23.3287 48.6021 22.2543 47.6937 22.0749Z" fill="#1D1D35"/>
</svg>
