<svg width="62" height="40" viewBox="0 0 62 40" fill="none" xmlns="http://www.w3.org/2000/svg">
<path d="M47 30C49.7614 30 52 27.7614 52 25C52 22.2385 49.7614 20 47 20C44.2386 20 42 22.2385 42 25C42 27.7614 44.2386 30 47 30Z" fill="#1D1D35"/>
<path d="M0 16V18H36C35.1913 17.2003 34.1799 16.6002 33.3704 16H0Z" fill="#1D1D35"/>
<path d="M45 16C45.2051 16.6002 45.4095 17.3998 45.4095 18H62V16H45Z" fill="#1D1D35"/>
<path fill-rule="evenodd" clip-rule="evenodd" d="M14.572 36.9899C15.1854 37.8411 14.9912 39.0297 14.139 39.6423C13.2867 40.255 12.0967 40.0611 11.4833 39.2099C11.4551 39.171 4.34034 29.3449 5.04973 19.9716H8.88461C8.00491 27.9164 14.5474 36.9553 14.572 36.9899ZM7.10355 13.4705C7.96376 12.0787 9.12128 10.7626 10.6461 9.56762C16.4749 4.99951 23.239 5.83129 28.9372 8.14561L24.4002 3.1847C23.6922 2.40773 23.7485 1.2026 24.5265 0.495542C25.3044 -0.211513 26.511 -0.155294 27.219 0.621673L41.5048 16.2417C42.168 16.9704 42.1695 18.0984 41.4824 18.8271C40.7615 19.5918 39.5556 19.6285 38.79 18.9085C38.7459 18.8674 23.4295 4.39189 13.0031 12.563C12.6307 12.8549 12.2915 13.1584 11.9755 13.4705H7.10355Z" fill="#1D1D35"/>
<path fill-rule="evenodd" clip-rule="evenodd" d="M23.428 35.601C24.188 36.3758 24.191 37.6356 23.4347 38.4141C22.6791 39.1927 21.4485 39.1957 20.6893 38.4209C20.6546 38.3854 11.8506 29.455 11 19.6548L14.8611 19C15.3015 27.3541 23.3979 35.5701 23.428 35.601Z" fill="#1D1D35"/>
</svg>
