<svg width="44" height="47" viewBox="0 0 44 47" fill="none" xmlns="http://www.w3.org/2000/svg">
<path d="M36.9509 8C38.1508 7.70398 39.2009 7.40738 40.1005 7.40738C40.2504 7.40738 40.4002 7.40738 40.5506 7.40738C41.15 7.40738 41.7506 7.55598 42.3505 7.852C43.4001 7.11138 44 5.77813 44 4.4449C44 1.92644 42.0497 0 39.5 0C36.9503 0 35 1.92644 35 4.4449C35.0006 5.92614 35.7504 7.25938 36.9509 8Z" fill="#1D1D35"/>
<path d="M19.3895 17.7857C19.2366 17.4716 19.2366 17.3142 19.2366 17L5.34377 22.8142C4.73329 22.1859 3.96987 21.7143 3.05357 21.7143C1.37445 21.7143 0 23.1283 0 24.8571C0 26.5854 1.37387 28 3.05357 28C4.73269 28 6.10719 26.586 6.10719 24.8571C6.10719 24.6998 6.10719 24.543 6.10719 24.2288L20 18.4147C19.6948 18.2573 19.5424 17.9425 19.3895 17.7857ZM2.90126 26.428C1.98495 26.428 1.37447 25.7997 1.37447 24.8566C1.37447 23.9135 1.98495 23.2851 2.90126 23.2851C3.81756 23.2851 4.42804 23.9135 4.42804 24.8566C4.42804 25.6423 3.81756 26.428 2.90126 26.428Z" fill="#1D1D35"/>
<path d="M24.0806 18.0064C23.3161 18.3263 22.4366 17.9662 22.1167 17.2018C21.7969 16.4374 22.1569 15.5578 22.9214 15.238L24.0806 18.0064ZM41.8588 11.3195L39.072 12.4333L39.3652 12.8484L39.6069 12.9987L39.6352 13.0106L39.4798 13.0009L39.1889 13.0106L38.7976 13.0519L38.3263 13.1268L37.7887 13.2329L37.1972 13.3689L36.5592 13.5323L35.8826 13.7189L35.1766 13.927L34.4456 14.1526L33.697 14.3942L32.9376 14.6471L32.1726 14.9091L31.4093 15.1779L30.6522 15.4501L29.9082 15.7229L29.1834 15.9928L28.483 16.2582L27.8127 16.5151L27.1798 16.7606L26.5883 16.9931L26.0456 17.2074L25.5579 17.4036L25.1269 17.5771L24.7634 17.7246L24.4713 17.8443L24.2564 17.9333L24.1237 17.9883L24.0806 18.0064L22.9214 15.238L22.9713 15.2176L23.1085 15.1603L23.3303 15.069L23.6303 14.946L24.0017 14.7951L24.4373 14.6194L24.9352 14.4197L25.4881 14.2009L26.0887 13.965L26.7329 13.7149L27.4146 13.4534L28.1286 13.1835L28.8681 12.9079L29.628 12.6295L30.4033 12.3505L31.1881 12.0749L31.9758 11.8038L32.7624 11.5418L33.5427 11.2912L34.3089 11.0542L35.0592 10.8335L35.7868 10.6323L36.4883 10.453L37.1592 10.2988L37.7978 10.1724L38.4029 10.0771L38.9768 10.0176L39.5297 10L40.0844 10.0436L40.6764 10.195L41.3263 10.5767L41.8588 11.3195ZM41.8588 11.3195C42.1662 12.0885 41.7913 12.9623 41.0224 13.2697C40.2534 13.577 39.3794 13.2022 39.072 12.4333L41.8588 11.3195ZM29.0195 46.0934L26.2634 44.9048L26.4154 44.5521L26.8458 43.5467L27.1526 42.8294L27.5133 41.9822L27.9233 41.017L28.3764 39.9459L28.8687 38.7782L29.395 37.5273L29.9484 36.2037L30.5263 34.8178L31.1218 33.3809L31.7308 31.9054L32.3467 30.402L32.966 28.8812L33.5819 27.3557L34.191 25.8354L34.7864 24.3327L35.3643 22.8583L35.9184 21.4236L36.4446 20.0405L36.9369 18.7204L37.3894 17.4757L37.7989 16.3177L38.1567 15.259L38.4601 14.3143L38.7006 13.4982L38.8741 12.8308L38.9733 12.3488L38.9989 12.1276L39.072 12.4333L41.8588 11.3195L42 12.173L41.9359 12.8251L41.7959 13.5169L41.5917 14.3035L41.3274 15.1989L41.007 16.1992L40.6344 17.2988L40.2148 18.4884L39.7531 19.7582L39.253 21.0987L38.721 22.4976L38.1613 23.9459L37.5788 25.4328L36.9788 26.9458L36.3664 28.4751L35.7471 30.0085L35.1256 31.5362L34.5063 33.0463L33.8949 34.5275L33.2972 35.9689L32.7182 37.3594L32.1624 38.6875L31.635 39.943L31.1416 41.1128L30.6862 42.1886L30.2751 43.156L29.9133 44.0066L29.6053 44.7274L29.1738 45.7351L29.0195 46.0934ZM29.0195 46.0934C28.6917 46.8544 27.8082 47.2049 27.0471 46.8771C26.2861 46.5494 25.9356 45.6658 26.2634 44.9048L29.0195 46.0934Z" fill="#1D1D35"/>
<path fill-rule="evenodd" clip-rule="evenodd" d="M28.6802 23.7671C29.118 23.0252 30.0745 22.7787 30.815 23.2173C31.5555 23.656 31.8016 24.6142 31.3637 25.3561L26.8339 33.0361L29.3133 33.9991L28.0966 36.871L24.0807 35.3108C23.9727 35.2766 23.8671 35.2293 23.7656 35.169C23.0251 34.7304 22.7791 33.772 23.2169 33.0301L28.6802 23.7671ZM35.0415 36.2236L37.0046 36.9863C37.8059 37.2966 38.2048 38.1999 37.895 39.0027C37.5852 39.8055 36.6837 40.2052 35.8824 39.8948L33.862 39.1098C34.2408 38.1899 34.6356 37.2233 35.0415 36.2236Z" fill="#1D1D35"/>
</svg>
